<svg width="24" height="24" viewBox="0 0 24 24" fill="none" xmlns="http://www.w3.org/2000/svg">
<path d="M12.52 1.5H11.52C10.69 1.5 10.02 2.17 10.02 3V4C10.02 4.83 10.69 5.5 11.52 5.5H12.52C13.35 5.5 14.02 4.83 14.02 4V3C14.02 2.17 13.35 1.5 12.52 1.5Z" fill="#F2F2F7"/>
<path d="M4.27 10.6699H3.27C2.44 10.6699 1.77 11.3399 1.77 12.1699V13.1699C1.77 13.9999 2.44 14.6699 3.27 14.6699H4.27C5.1 14.6699 5.77 13.9999 5.77 13.1699V12.1699C5.77 11.3399 5.09 10.6699 4.27 10.6699Z" fill="#F2F2F7"/>
<path d="M20.73 10.6699H19.73C18.9 10.6699 18.23 11.3399 18.23 12.1699V13.1699C18.23 13.9999 18.9 14.6699 19.73 14.6699H20.73C21.56 14.6699 22.23 13.9999 22.23 13.1699V12.1699C22.23 11.3399 21.56 10.6699 20.73 10.6699Z" fill="#F2F2F7"/>
<path d="M3.75 11.9203C3.34 11.9203 3 11.5803 3 11.1703C3 6.90031 6.2 3.31033 10.44 2.81033C10.84 2.77033 11.22 3.0603 11.27 3.4703C11.32 3.8803 11.02 4.25032 10.61 4.30032C7.13 4.71032 4.5 7.66031 4.5 11.1703C4.5 11.5803 4.16 11.9203 3.75 11.9203Z" fill="#F2F2F7"/>
<path d="M20.25 11.9198C19.84 11.9198 19.5 11.5798 19.5 11.1698C19.5 7.67979 16.89 4.72981 13.43 4.30981C13.02 4.25981 12.73 3.88979 12.78 3.47979C12.83 3.06979 13.21 2.77982 13.62 2.82982C17.83 3.33982 21.01 6.9298 21.01 11.1798C21 11.5798 20.67 11.9198 20.25 11.9198Z" fill="#F2F2F7"/>
<path d="M13.29 22.0101H10.72C9.80001 22.0101 9.12 21.2701 9.29 20.4701L9.71001 18.6201H14.3L14.72 20.4701C14.91 21.3201 14.27 22.0101 13.29 22.0101Z" fill="#F2F2F7"/>
<path opacity="0.4" d="M16.07 17.0499L14.3 18.6199H9.71001L7.94001 17.0499C6.91001 16.2099 6.91001 15.5599 7.69001 14.5699L10.81 10.6299C11.03 10.3599 11.28 10.1699 11.55 10.0799C11.84 9.97988 12.16 9.97988 12.45 10.0799C12.72 10.1799 12.97 10.3599 13.19 10.6299L16.31 14.5699C17.09 15.5599 17.06 16.1799 16.07 17.0499Z" fill="#F2F2F7"/>
</svg>
