<svg width="68" height="68" viewBox="0 0 68 68" fill="none" xmlns="http://www.w3.org/2000/svg">
<path d="M27.7038 52.889C31.1793 52.889 34.0001 50.0682 34.0001 46.5927V40.2964H27.7038C24.2282 40.2964 21.4075 43.1171 21.4075 46.5927C21.4075 50.0682 24.2282 52.889 27.7038 52.889Z" fill="#E0E0E0"/>
<path d="M21.4075 34.0004C21.4075 30.5248 24.2282 27.7041 27.7038 27.7041H34.0001V40.2967H27.7038C24.2282 40.2967 21.4075 37.4759 21.4075 34.0004Z" fill="#E0E0E0"/>
<path d="M21.4075 21.4076C21.4075 17.9321 24.2282 15.1113 27.7038 15.1113H34.0001V27.7039H27.7038C24.2282 27.7039 21.4075 24.8832 21.4075 21.4076Z" fill="#E0E0E0"/>
<path d="M34 15.1113H40.2963C43.7719 15.1113 46.5926 17.9321 46.5926 21.4076C46.5926 24.8832 43.7719 27.7039 40.2963 27.7039H34V15.1113Z" fill="#E0E0E0"/>
<path d="M46.5926 34.0004C46.5926 37.4759 43.7719 40.2967 40.2963 40.2967C36.8207 40.2967 34 37.4759 34 34.0004C34 30.5248 36.8207 27.7041 40.2963 27.7041C43.7719 27.7041 46.5926 30.5248 46.5926 34.0004Z" fill="#E0E0E0"/>
</svg>
