<svg width="68" height="68" viewBox="0 0 68 68" fill="none" xmlns="http://www.w3.org/2000/svg">
<path d="M34 15.5771C23.5693 15.5771 15.1111 24.0339 15.1111 34.4661C15.1111 42.8119 20.5233 49.8922 28.0286 52.3899C28.9725 52.5647 29.3192 51.9802 29.3192 51.4812C29.3192 51.0309 29.3015 49.5428 29.2935 47.9644C24.0385 49.1071 22.9296 45.7358 22.9296 45.7358C22.0704 43.5525 20.8324 42.972 20.8324 42.972C19.1186 41.7996 20.9615 41.8236 20.9615 41.8236C22.8584 41.957 23.8571 43.7702 23.8571 43.7702C25.5418 46.658 28.276 45.823 29.3538 45.3405C29.5233 44.1195 30.0129 43.2864 30.5531 42.8147C26.3576 42.3369 21.9471 40.7173 21.9471 33.4796C21.9471 31.4175 22.685 29.7323 23.8934 28.4096C23.6973 27.9337 23.0508 26.0126 24.0764 23.4108C24.0764 23.4108 25.6626 22.9031 29.2722 25.347C30.7788 24.9284 32.3948 24.7186 34 24.7115C35.6053 24.7186 37.2225 24.9284 38.732 25.347C42.3374 22.9031 43.9213 23.4108 43.9213 23.4108C44.9494 26.0126 44.3026 27.9337 44.1065 28.4096C45.3176 29.7323 46.0504 31.4173 46.0504 33.4796C46.0504 40.7345 41.6316 42.3321 37.4256 42.7996C38.103 43.3858 38.7067 44.5354 38.7067 46.2975C38.7067 48.8249 38.6848 50.859 38.6848 51.4812C38.6848 51.9839 39.0248 52.5729 39.9824 52.3874C47.4834 49.8869 52.8889 42.8091 52.8889 34.4661C52.8889 24.0339 44.4318 15.5771 34 15.5771Z" fill="white"/>
<path d="M22.1856 42.4849C22.1441 42.5786 21.9963 42.6068 21.8619 42.5425C21.7249 42.4809 21.6478 42.3529 21.6923 42.2586C21.733 42.1621 21.8809 42.1351 22.0176 42.2C22.1549 42.2615 22.2332 42.3906 22.1856 42.4849ZM23.1148 43.3139C23.0247 43.3974 22.8485 43.3586 22.729 43.2266C22.6054 43.0949 22.5823 42.9189 22.6737 42.834C22.7666 42.7506 22.9374 42.7896 23.0613 42.9214C23.1848 43.0546 23.2088 43.2296 23.1146 43.314L23.1148 43.3139ZM23.7522 44.3746C23.6364 44.455 23.447 44.3796 23.3302 44.2116C23.2145 44.0438 23.2145 43.8423 23.3327 43.7616C23.45 43.6808 23.6364 43.7534 23.7549 43.9201C23.8704 44.0909 23.8704 44.2924 23.7521 44.3747L23.7522 44.3746ZM24.8301 45.6031C24.7266 45.7172 24.5061 45.6867 24.3446 45.5308C24.1796 45.3785 24.1335 45.1624 24.2374 45.0482C24.3421 44.9338 24.5639 44.966 24.7266 45.1205C24.8906 45.2725 24.9406 45.4902 24.8303 45.6031H24.8301ZM26.2232 46.0179C26.1778 46.1658 25.9653 46.233 25.7514 46.1702C25.5378 46.1055 25.3979 45.9321 25.4411 45.7827C25.4855 45.6338 25.6988 45.5637 25.9144 45.631C26.1277 45.6954 26.2678 45.8674 26.2234 46.0179H26.2232ZM27.809 46.1938C27.8143 46.3496 27.6328 46.4788 27.4082 46.4816C27.1823 46.4865 26.9997 46.3604 26.9973 46.2072C26.9973 46.0499 27.1746 45.9219 27.4004 45.9182C27.625 45.9138 27.809 46.039 27.809 46.1938ZM29.3665 46.1341C29.3935 46.2861 29.2374 46.4422 29.0144 46.4837C28.7952 46.5237 28.5922 46.4299 28.5642 46.2792C28.5369 46.1234 28.6961 45.9674 28.9149 45.927C29.1383 45.8881 29.3381 45.9795 29.3665 46.1341Z" fill="white"/>
</svg>
