<svg width="68" height="68" viewBox="0 0 68 68" fill="none" xmlns="http://www.w3.org/2000/svg">
<path d="M51.0627 48.1613C51.0767 50.7551 48.985 52.8671 46.3928 52.881C46.2001 52.8826 46.0059 52.8717 45.8147 52.8484C43.409 52.4925 41.6467 50.3992 41.7058 47.9686V20.0234C41.6483 17.5897 43.4152 15.4964 45.8225 15.1436C48.3975 14.8421 50.7302 16.6853 51.0317 19.2603C51.0534 19.4499 51.0643 19.6395 51.0627 19.8307V48.1613Z" fill="#E0E0E0"/>
<path d="M21.6164 43.5301C24.2008 43.5301 26.2957 45.625 26.2957 48.2094C26.2957 50.7938 24.2008 52.8887 21.6164 52.8887C19.032 52.8887 16.9371 50.7938 16.9371 48.2094C16.9371 45.625 19.032 43.5301 21.6164 43.5301ZM33.9277 29.3492C31.3309 29.4922 29.3168 31.6694 29.3774 34.2694V46.8371C29.3774 50.2483 30.8787 52.3183 33.0777 52.7597C35.6154 53.2741 38.088 51.6345 38.6024 49.0967C38.6661 48.7859 38.6972 48.4705 38.6956 48.1534V34.0518C38.7003 31.4581 36.6023 29.3523 34.0085 29.3477C33.9821 29.3477 33.9542 29.3477 33.9277 29.3492Z" fill="#E0E0E0"/>
</svg>
