<svg width="68" height="68" viewBox="0 0 68 68" fill="none" xmlns="http://www.w3.org/2000/svg">
<path d="M52.1764 32.317L35.6823 15.8238C34.7329 14.8739 33.1923 14.8739 32.2418 15.8238L28.8167 19.2488L33.1616 23.5937C34.1713 23.2526 35.3291 23.4814 36.134 24.2863C36.9427 25.0963 37.1699 26.264 36.8205 27.2769L41.0077 31.4643C42.0208 31.1153 43.1897 31.3411 43.9988 32.1516C45.1297 33.282 45.1297 35.114 43.9988 36.2452C42.8677 37.3764 41.0356 37.3764 39.9039 36.2452C39.0533 35.3937 38.8432 34.1445 39.2738 33.0966L35.3688 29.1916L35.3684 39.4679C35.6515 39.6079 35.91 39.7928 36.134 40.0154C37.2648 41.1458 37.2648 42.978 36.134 44.11C35.0029 45.2407 33.1699 45.2407 32.0404 44.11C30.9096 42.978 30.9096 41.1459 32.0404 40.0156C32.3114 39.7444 32.6334 39.5297 32.9879 39.3838V29.0117C32.6329 28.8668 32.3107 28.652 32.0404 28.38C31.1836 27.5244 30.9776 26.2672 31.4166 25.2152L27.1336 20.9317L15.8238 32.2407C14.8735 33.1915 14.8735 34.7323 15.8238 35.6823L32.3183 52.1759C33.2679 53.1259 34.8082 53.1259 35.759 52.1759L52.1762 35.7589C53.1263 34.8086 53.1263 33.2669 52.1762 32.317" fill="#E0E0E0"/>
</svg>
