<svg width="68" height="68" viewBox="0 0 68 68" fill="none" xmlns="http://www.w3.org/2000/svg">
<path d="M34 22.6699C28.9628 22.6699 25.8147 25.1878 24.5553 30.2231C26.4444 27.7052 28.6482 26.7614 31.1665 27.3906C32.6036 27.7496 33.6306 28.7922 34.7676 29.9458C36.6194 31.825 38.7627 33.9999 43.4447 33.9999C48.4814 33.9999 51.6299 31.482 52.8889 26.4463C51.0002 28.9642 48.7965 29.9085 46.2776 29.2792C44.8411 28.9202 43.8141 27.8776 42.677 26.724C40.8252 24.8448 38.6814 22.6699 34 22.6699ZM24.5553 33.9999C19.5186 33.9999 16.37 36.5178 15.1111 41.5536C16.9997 39.0357 19.2035 38.0914 21.7223 38.7211C23.1589 39.0806 24.1859 40.1227 25.3229 41.2758C27.1747 43.155 29.3185 45.3304 34 45.3304C39.0372 45.3304 42.1852 42.8125 43.4447 37.7768C41.5555 40.2946 39.3518 41.239 36.8334 40.6093C35.3964 40.2507 34.3694 39.2076 33.2323 38.0545C31.3805 36.1753 29.2372 33.9999 24.5553 33.9999Z" fill="#E0E0E0"/>
</svg>
