<svg width="68" height="68" viewBox="0 0 68 68" fill="none" xmlns="http://www.w3.org/2000/svg">
<path d="M26.306 32.5714C26.1327 32.3451 25.8768 32.1966 25.5942 32.1586C25.3117 32.1205 25.0256 32.1959 24.7986 32.3683C24.665 32.4737 24.5572 32.6081 24.4835 32.7614L15.2277 51.2783C15.0966 51.5407 15.0751 51.8444 15.1679 52.1227C15.2606 52.401 15.4601 52.631 15.7224 52.7623C15.8757 52.8399 16.0453 52.88 16.2171 52.8795H29.1127C29.3193 52.8848 29.5229 52.8297 29.6986 52.721C29.8743 52.6123 30.0146 52.4548 30.1021 52.2676C32.8853 46.5189 31.1982 37.7786 26.306 32.5714Z" fill="#E0E0E0"/>
<path d="M33.1092 15.721C30.8018 19.2716 29.4571 23.3611 29.207 27.5882C28.9568 31.8154 29.8099 36.0349 31.6824 39.8329L37.8998 52.2677C37.9917 52.4515 38.1329 52.6061 38.3076 52.7141C38.4824 52.8222 38.6837 52.8795 38.8892 52.8796H51.7823C51.9277 52.8799 52.0717 52.8515 52.2061 52.796C52.3405 52.7405 52.4626 52.6591 52.5655 52.5562C52.6683 52.4534 52.7498 52.3313 52.8053 52.1969C52.8607 52.0625 52.8891 51.9184 52.8888 51.773C52.8889 51.6016 52.8497 51.4323 52.7742 51.2784L34.9916 15.7158C34.9072 15.5376 34.7739 15.387 34.6073 15.2815C34.4407 15.1761 34.2476 15.1201 34.0504 15.1201C33.8532 15.1201 33.6601 15.1761 33.4935 15.2815C33.3269 15.387 33.1936 15.5376 33.1092 15.7158V15.721Z" fill="#E0E0E0"/>
</svg>
