<svg width="68" height="68" viewBox="0 0 68 68" fill="none" xmlns="http://www.w3.org/2000/svg">
<path d="M48.9497 22.4551C46.6662 19.4981 43.557 17.2847 40.0155 16.0949C36.474 14.905 32.6591 14.7921 29.0534 15.7705C25.4477 16.7489 22.2132 18.7745 19.7588 21.5913C17.3044 24.4081 15.7405 27.8895 15.2648 31.5951C14.7891 35.3008 15.4231 39.0643 17.0864 42.4097C18.7498 45.755 21.3679 48.532 24.6096 50.3893C27.8513 52.2466 31.571 53.1009 35.2982 52.8441C39.0254 52.5873 42.5928 51.2309 45.5491 48.9466C53.8011 42.5693 55.324 30.7101 48.9491 22.4551H48.9497Z" fill="#E0E0E0"/>
<path d="M40.3705 27.1468L32.406 35.1745L30.1553 32.8606C37.994 25.0218 38.7809 25.7301 40.3711 27.1468H40.3705Z" fill="#010202"/>
<path d="M32.4062 35.3938C32.3356 35.3921 32.2683 35.3641 32.2173 35.3153L29.9507 33.0487C29.8996 32.9958 29.8711 32.9253 29.8711 32.8518C29.8711 32.7784 29.8996 32.7078 29.9507 32.655C37.6791 24.9265 38.7339 25.2884 40.5596 26.9411C40.5902 26.9656 40.6146 26.9968 40.631 27.0324C40.6474 27.0679 40.6553 27.1068 40.6541 27.1459C40.6659 27.2227 40.6364 27.3012 40.5756 27.3508L32.611 35.3159C32.5552 35.3671 32.4819 35.3952 32.4062 35.3944V35.3938ZM30.5486 32.8598L32.4062 34.7174L39.9617 27.1619C39.7008 26.835 39.3286 26.6157 38.9162 26.546C38.5038 26.4763 38.0801 26.5611 37.7263 26.7841C36.3569 27.398 34.1534 29.2709 30.5486 32.8598Z" fill="#E0E0E0"/>
<path d="M34.6886 37.3938L32.5164 35.1744L40.4809 27.3037C42.6219 29.3974 39.4421 32.8918 34.6886 37.3932V37.3938Z" fill="#010202"/>
<path d="M34.6887 37.6769C34.619 37.6714 34.5528 37.6439 34.4998 37.5984L32.2803 35.4262C32.247 35.3455 32.247 35.2549 32.2803 35.1742C32.2567 35.108 32.2567 35.0356 32.2803 34.9694L40.2449 27.0048C40.3003 26.9528 40.3734 26.9238 40.4494 26.9238C40.5254 26.9238 40.5986 26.9528 40.654 27.0048C40.9119 27.2422 41.1157 27.5324 41.2514 27.8556C41.3872 28.1788 41.4518 28.5274 41.4408 28.8778C41.4408 31.0027 39.0165 33.6784 34.8929 37.5825C34.8378 37.637 34.7653 37.6705 34.6881 37.6769H34.6887ZM32.9255 35.1742L34.704 36.9521C37.8519 33.9771 40.8588 30.9077 40.8741 28.83C40.8912 28.3895 40.7456 27.9581 40.4651 27.6181L32.9255 35.1742Z" fill="#E0E0E0"/>
<path d="M30.218 32.9078L31.7923 34.482C31.8023 34.4909 31.8104 34.5018 31.8159 34.514C31.8214 34.5262 31.8243 34.5394 31.8243 34.5528C31.8243 34.5662 31.8214 34.5795 31.8159 34.5917C31.8104 34.6039 31.8023 34.6148 31.7923 34.6237L28.4708 35.332C28.4038 35.3465 28.3338 35.3386 28.2717 35.3097C28.2095 35.2807 28.1585 35.2322 28.1264 35.1716C28.0943 35.111 28.0829 35.0416 28.0939 34.9739C28.105 34.9062 28.1378 34.8439 28.1875 34.7966L30.1236 32.8765C30.1236 32.8765 30.1868 32.8765 30.218 32.9078Z" fill="#010202"/>
<path d="M28.3921 35.6467C28.2872 35.6454 28.1843 35.6172 28.0934 35.5648C28.0025 35.5124 27.9265 35.4376 27.8727 35.3475C27.8122 35.2333 27.7902 35.1026 27.8101 34.9749C27.83 34.8473 27.8907 34.7295 27.9831 34.6391L29.9032 32.703C29.9725 32.6411 30.0621 32.6069 30.155 32.6069C30.2479 32.6069 30.3375 32.6411 30.4067 32.703L31.981 34.2773C32.0742 34.3658 32.1108 34.4998 32.0754 34.6238C32.04 34.7477 31.9361 34.8463 31.808 34.8758L28.4866 35.5842L28.3921 35.6467ZM30.1553 33.2544L28.3768 35.0328L31.3205 34.403L30.1553 33.2544Z" fill="#E0E0E0"/>
<path d="M44.6053 22.7233C43.466 21.6242 41.6763 21.5782 40.4815 22.6153C39.2868 23.6524 39.0826 25.4327 40.0129 26.7136C40.9432 27.9944 42.6969 28.3533 44.0545 27.5399L41.9136 25.399L44.6053 22.7233Z" fill="#010202"/>
<path d="M42.4804 28.2634C41.8258 28.255 41.1882 28.0542 40.6471 27.686C40.1059 27.3178 39.685 26.7984 39.4369 26.1927C39.189 25.5874 39.1239 24.9228 39.2498 24.2809C39.3757 23.6391 39.687 23.0482 40.1452 22.5814C40.7754 21.9628 41.6232 21.6162 42.5063 21.6162C43.3894 21.6162 44.2372 21.9628 44.8674 22.5814C44.9276 22.6322 44.9619 22.7071 44.9619 22.7862C44.9617 22.8252 44.9532 22.8636 44.9369 22.8989C44.9206 22.9343 44.8969 22.9657 44.8674 22.9911L42.3174 25.3994L44.2535 27.3042C44.2849 27.3342 44.3085 27.3713 44.3222 27.4125C44.3358 27.4537 44.3392 27.4975 44.3321 27.5403C44.3274 27.5816 44.3137 27.6213 44.292 27.6567C44.2703 27.6921 44.241 27.7223 44.2063 27.7451C43.6862 28.0702 43.0883 28.2496 42.475 28.2646L42.4804 28.2634ZM42.4804 22.1558C41.3588 22.1617 40.3554 22.8364 39.9345 23.8676C39.5136 24.8988 39.7426 26.0859 40.5289 26.878C40.92 27.2714 41.4207 27.5374 41.9656 27.6414C42.5104 27.7454 43.074 27.6823 43.5824 27.4606L41.7248 25.603C41.6953 25.5794 41.6714 25.5495 41.655 25.5154C41.6387 25.4813 41.6302 25.444 41.6302 25.4062C41.6302 25.3684 41.6387 25.331 41.655 25.297C41.6714 25.2629 41.6953 25.2329 41.7248 25.2093L44.1804 22.7378C43.6922 22.3637 43.0953 22.1592 42.4804 22.1552V22.1558Z" fill="#E0E0E0"/>
<path d="M44.6526 22.7705L41.9609 25.4462L44.1018 27.5871C44.3173 27.4634 44.5179 27.3155 44.6998 27.1462C45.2609 26.5531 45.5696 25.7652 45.5608 24.9488C45.552 24.1324 45.2263 23.3513 44.6526 22.7705Z" fill="#010202"/>
<path d="M44.0538 27.8229C44.0185 27.8249 43.9832 27.8188 43.9505 27.8052C43.9178 27.7916 43.8885 27.7708 43.865 27.7444L41.724 25.6035C41.6945 25.5799 41.6707 25.5499 41.6543 25.5159C41.6379 25.4818 41.6294 25.4445 41.6294 25.4067C41.6294 25.3688 41.6379 25.3315 41.6543 25.2974C41.6707 25.2634 41.6945 25.2334 41.724 25.2098L44.3997 22.5813C44.4256 22.5423 44.4607 22.5104 44.5019 22.4883C44.5431 22.4662 44.5891 22.4546 44.6359 22.4546C44.6826 22.4546 44.7286 22.4662 44.7698 22.4883C44.811 22.5104 44.8461 22.5423 44.872 22.5813C45.1861 22.8891 45.4356 23.2564 45.606 23.6619C45.7764 24.0673 45.8641 24.5026 45.8641 24.9424C45.8641 25.3822 45.7764 25.8175 45.606 26.2229C45.4356 26.6284 45.1861 26.9957 44.872 27.3035C44.6867 27.5 44.4747 27.6695 44.2421 27.807C44.1836 27.8365 44.1159 27.8422 44.0533 27.8229H44.0538ZM42.3226 25.3993L44.1011 27.1778C44.2234 27.092 44.3392 26.9973 44.4476 26.8944C44.9704 26.373 45.2648 25.6654 45.2663 24.9271C45.2675 24.2663 45.0266 23.6279 44.5892 23.1326L42.3226 25.3993Z" fill="#E0E0E0"/>
<path d="M40.7012 27.4772C40.4881 27.277 40.2066 27.1655 39.9141 27.1655C39.6217 27.1655 39.3402 27.277 39.127 27.4772L31.9971 34.5912L33.1776 35.7877L40.7172 29.1766C40.8322 29.0664 40.9234 28.9338 40.9852 28.787C41.047 28.6403 41.0781 28.4824 41.0766 28.3231C41.0751 28.1639 41.0411 28.0066 40.9765 27.861C40.9119 27.7154 40.8183 27.5846 40.7012 27.4766V27.4772Z" fill="#010202"/>
<path d="M33.1143 36.0714C33.0438 36.0697 32.9764 36.0417 32.9255 35.9929L31.729 34.7965C31.6779 34.7436 31.6494 34.673 31.6494 34.5996C31.6494 34.5261 31.6779 34.4556 31.729 34.4027L38.8595 27.3035C39.0648 27.0984 39.3271 26.9597 39.6123 26.9054C39.8974 26.8512 40.1923 26.8838 40.4587 26.9991C40.7251 27.1145 40.9506 27.3072 41.1062 27.5523C41.2617 27.7974 41.34 28.0836 41.3309 28.3737C41.3228 28.5706 41.2754 28.7639 41.1916 28.9423C41.1077 29.1207 40.9892 29.2806 40.8428 29.4126L33.3032 36.0236C33.2484 36.0624 33.181 36.0793 33.1143 36.0709V36.0714ZM32.2803 34.591L33.0671 35.3938L40.465 28.9557C40.648 28.7963 40.7572 28.5685 40.7643 28.3259C40.7714 28.0833 40.6757 27.846 40.4969 27.6807C40.3317 27.5162 40.1081 27.4239 39.875 27.4239C39.6419 27.4239 39.4183 27.5162 39.2532 27.6807L32.2803 34.591Z" fill="#E0E0E0"/>
<path d="M26.472 42.6978C26.4519 42.7251 26.441 42.7582 26.441 42.7922C26.441 42.8262 26.4519 42.8593 26.472 42.8866L26.7866 44.2561C26.7992 44.3367 26.7873 44.4192 26.7523 44.4929C26.7174 44.5666 26.661 44.628 26.5907 44.6693C26.5205 44.7103 26.4392 44.728 26.3584 44.7198C26.2775 44.7117 26.2014 44.678 26.1409 44.6238L23.9846 42.5461L30.706 35.7715H33.0358L34.6101 37.3457C32.1544 39.4928 29.4163 41.2935 26.472 42.6978Z" fill="#010202"/>
<path d="M26.3303 45.0117C26.1521 45.0082 25.9762 44.935 25.8581 44.8069L23.7963 42.7451C23.7668 42.7215 23.7429 42.6915 23.7266 42.6574C23.7102 42.6234 23.7017 42.586 23.7017 42.5482C23.7017 42.5104 23.7102 42.4731 23.7266 42.439C23.7429 42.4049 23.7668 42.375 23.7963 42.3514L30.5644 35.5674C30.6023 35.5271 30.6518 35.4996 30.706 35.4889H33.0512C33.1123 35.4673 33.179 35.4673 33.2401 35.4889L34.8143 37.0631C34.8443 37.0907 34.8671 37.1252 34.8807 37.1635C34.8944 37.2019 34.8986 37.243 34.8928 37.2833C34.894 37.3224 34.886 37.3612 34.8696 37.3968C34.8532 37.4323 34.8289 37.4636 34.7984 37.4881L34.6727 37.5985C32.2071 39.654 29.4944 41.3936 26.5977 42.777L26.897 44.0519C26.9201 44.1503 26.921 44.2526 26.8996 44.3513C26.8782 44.4501 26.835 44.5428 26.7732 44.6227C26.7113 44.7026 26.6324 44.7677 26.5423 44.8133C26.4521 44.8588 26.3529 44.8837 26.2518 44.886L26.3303 45.0117ZM24.4102 42.5403L26.2672 44.4132C26.2845 44.4286 26.3069 44.4372 26.3301 44.4372C26.3532 44.4372 26.3756 44.4286 26.3929 44.4132C26.4045 44.3971 26.4107 44.3778 26.4107 44.358C26.4107 44.3382 26.4045 44.3189 26.3929 44.3028L26.0783 42.9334C26.0535 42.8351 26.0635 42.7313 26.1065 42.6395C26.1495 42.5477 26.223 42.4737 26.3144 42.4299C29.1332 41.065 31.7759 39.363 34.1845 37.3612L32.8936 36.0703H30.7845L24.4102 42.5403Z" fill="#E0E0E0"/>
<path d="M22.3639 44.1616L23.9381 42.5874L26.3624 45.0116L22.5061 44.7442C22.4399 44.7391 22.3771 44.7131 22.3265 44.67C22.2759 44.627 22.2402 44.5691 22.2245 44.5046C22.2088 44.44 22.2139 44.3722 22.239 44.3107C22.2642 44.2492 22.3081 44.1973 22.3645 44.1622L22.3639 44.1616Z" fill="#010202"/>
<path d="M26.4089 45.2482L22.568 44.9808C22.3402 44.9595 22.1442 44.8037 22.0639 44.5953C21.9836 44.3869 22.0326 44.1396 22.1902 43.9732L23.7645 42.3989C23.8173 42.3479 23.8879 42.3193 23.9613 42.3193C24.0348 42.3193 24.1054 42.3479 24.1582 42.3989L26.5665 44.8072C26.5998 44.8529 26.6178 44.908 26.6178 44.9645C26.6178 45.0211 26.5998 45.0762 26.5665 45.1218C26.5301 45.1807 26.4744 45.2251 26.4089 45.2476V45.2482ZM22.568 44.3669L25.7159 44.5717L23.9847 42.9502L22.568 44.3669Z" fill="#E0E0E0"/>
<path d="M33.2559 35.9616L30.0762 36.4497L31.9178 34.624L33.2559 35.9616Z" fill="#010202"/>
<path d="M30.0763 36.7479C30.0235 36.7493 29.9714 36.7351 29.9266 36.7071C29.8818 36.6791 29.8462 36.6385 29.8243 36.5903C29.7908 36.5447 29.7727 36.4896 29.7727 36.433C29.7727 36.3764 29.7908 36.3213 29.8243 36.2757L31.65 34.434C31.7054 34.382 31.7785 34.353 31.8545 34.353C31.9305 34.353 32.0037 34.382 32.059 34.434L33.3978 35.7716C33.4245 35.814 33.4387 35.8631 33.4387 35.9133C33.4387 35.9634 33.4245 36.0125 33.3978 36.055C33.3846 36.1066 33.3569 36.1535 33.3178 36.1898C33.2788 36.2261 33.2301 36.2504 33.1776 36.2598L30.0297 36.7479H30.0763ZM31.918 35.032L30.895 36.055L32.6582 35.7876L31.918 35.032Z" fill="#E0E0E0"/>
<path d="M33.2561 35.9607L31.0367 36.2441C30.9773 36.2575 30.9152 36.2515 30.8595 36.2269C30.8038 36.2023 30.7575 36.1604 30.7275 36.1074C30.6974 36.0544 30.6853 35.9931 30.6929 35.9327C30.7004 35.8722 30.7272 35.8158 30.7693 35.7718L31.9186 34.6226L33.2561 35.9607Z" fill="#010202"/>
<path d="M30.9735 36.544C30.8706 36.543 30.7698 36.5148 30.6814 36.4622C30.593 36.4097 30.52 36.3346 30.47 36.2447C30.4099 36.137 30.3866 36.0125 30.4036 35.8904C30.4207 35.7682 30.4771 35.6549 30.5644 35.5677L31.7137 34.4184C31.7691 34.3664 31.8422 34.3374 31.9182 34.3374C31.9942 34.3374 32.0674 34.3664 32.1228 34.4184L33.4609 35.7566C33.5007 35.7943 33.5287 35.8427 33.5415 35.896C33.5543 35.9493 33.5514 36.0052 33.5331 36.0569C33.5148 36.1085 33.4819 36.1538 33.4384 36.1871C33.3949 36.2205 33.3426 36.2405 33.288 36.2447L31.0845 36.528L30.9735 36.544ZM30.9735 35.9614L32.6422 35.7566L31.9026 35.0169L30.9582 35.9614H30.9735ZM44.6678 24.5809C44.6382 24.5312 44.5913 24.4942 44.5361 24.4768C44.481 24.4594 44.4213 24.4628 44.3686 24.4865C44.3425 24.4997 44.3194 24.518 44.3005 24.5403C44.2816 24.5626 44.2674 24.5884 44.2588 24.6163C44.2412 24.6726 44.2468 24.7335 44.2741 24.7857C44.3845 25.0177 44.3538 25.2922 44.1956 25.4941C44.176 25.5135 44.1606 25.5368 44.1504 25.5625C44.1402 25.5882 44.1355 25.6158 44.1366 25.6434C44.1371 25.6988 44.1582 25.7519 44.1956 25.7927C44.236 25.8087 44.2809 25.8087 44.3213 25.7927C44.358 25.8019 44.3965 25.8009 44.4326 25.7898C44.4687 25.7787 44.5011 25.7578 44.5262 25.7296C44.6558 25.5709 44.7379 25.3788 44.7629 25.1754C44.788 24.972 44.755 24.7657 44.6678 24.5803V24.5809Z" fill="#E0E0E0"/>
</svg>
