<svg width="68" height="68" viewBox="0 0 68 68" fill="none" xmlns="http://www.w3.org/2000/svg">
<path d="M51.3107 15.1113H33.1189C33.1189 17.2893 33.9841 19.3781 35.5242 20.9181C37.0642 22.4582 39.153 23.3234 41.331 23.3234H44.6821V26.559C44.6851 31.0903 48.3576 34.7629 52.8888 34.7659V16.6895C52.8888 15.8181 52.1825 15.1113 51.3107 15.1113Z" fill="#E0E0E0"/>
<path d="M42.3094 24.1758H24.1177C24.1205 28.707 27.793 32.3797 32.3244 32.3827H35.6756V35.6286C35.6814 40.1599 39.3564 43.83 43.8877 43.83V25.7542C43.8877 24.8826 43.181 24.1759 42.3094 24.1759V24.1758Z" fill="#E0E0E0"/>
<path d="M33.3029 33.2349H15.1111C15.1111 37.7703 18.7879 41.4469 23.3232 41.4469H26.6848V44.6824C26.6878 49.2095 30.3539 52.8806 34.8812 52.8892V34.8132C34.8812 33.9415 34.1745 33.2349 33.3029 33.2349Z" fill="#E0E0E0"/>
</svg>
