<svg width="68" height="68" viewBox="0 0 68 68" fill="none" xmlns="http://www.w3.org/2000/svg">
<path d="M34 37.3306C35.8394 37.3306 37.3306 35.8394 37.3306 34C37.3306 32.1606 35.8394 30.6694 34 30.6694C32.1606 30.6694 30.6694 32.1606 30.6694 34C30.6694 35.8394 32.1606 37.3306 34 37.3306Z" fill="#E0E0E0"/>
<path fill-rule="evenodd" clip-rule="evenodd" d="M18.3467 32.2451C17.5925 32.926 17.3429 33.521 17.3429 33.9998C17.3429 34.4787 17.5925 35.0737 18.3467 35.7545C19.1008 36.4353 20.2602 37.104 21.7961 37.6904C24.8598 38.8602 29.1741 39.6092 34 39.6092C38.8258 39.6092 43.1402 38.8602 46.2038 37.6904C47.7398 37.104 48.8992 36.4353 49.6533 35.7545C50.4075 35.0737 50.6571 34.4787 50.6571 33.9998C50.6571 33.521 50.4075 32.926 49.6533 32.2451C48.8992 31.5644 47.7398 30.8957 46.2038 30.3092C43.1402 29.1395 38.8258 28.3905 34 28.3905C29.1741 28.3905 24.8598 29.1395 21.7961 30.3092C20.2602 30.8957 19.1008 31.5644 18.3467 32.2451ZM20.9299 28.0404C24.3344 26.7405 28.9557 25.9619 34 25.9619C39.0442 25.9619 43.6656 26.7405 47.0701 28.0404C48.7682 28.6887 50.226 29.4904 51.2806 30.4424C52.3351 31.3943 53.0857 32.5944 53.0857 33.9998C53.0857 35.4053 52.3351 36.6054 51.2806 37.5572C50.226 38.5092 48.7682 39.3109 47.0701 39.9593C43.6656 41.2592 39.0442 42.0377 34 42.0377C28.9557 42.0377 24.3344 41.2592 20.9299 39.9593C19.2318 39.3109 17.7739 38.5092 16.7193 37.5572C15.6649 36.6054 14.9143 35.4053 14.9143 33.9998C14.9143 32.5944 15.6649 31.3943 16.7193 30.4424C17.7739 29.4904 19.2318 28.6887 20.9299 28.0404Z" fill="#E0E0E0"/>
<path fill-rule="evenodd" clip-rule="evenodd" d="M27.693 19.5663C26.7262 19.2535 26.0862 19.3349 25.6715 19.5743C25.2568 19.8137 24.8663 20.3274 24.6537 21.321C24.4413 22.3144 24.4418 23.6528 24.7019 25.2763C25.2207 28.5143 26.7293 32.6251 29.1422 36.8044C31.5551 40.9838 34.3609 44.3456 36.9058 46.4139C38.1817 47.4509 39.3405 48.1206 40.307 48.4333C41.2738 48.746 41.9139 48.6647 42.3286 48.4253C42.7433 48.1858 43.1338 47.6722 43.3463 46.6786C43.5588 45.6851 43.5582 44.3467 43.2981 42.7233C42.7793 39.4853 41.2708 35.3744 38.8578 31.1951C36.4449 27.0158 33.6391 23.6539 31.0943 21.5856C29.8184 20.5487 28.6596 19.879 27.693 19.5663ZM32.626 19.701C35.454 21.9995 38.4389 25.6124 40.9611 29.9808C43.4832 34.3493 45.1196 38.7407 45.6961 42.3391C45.9837 44.1339 46.0183 45.7972 45.7211 47.1865C45.424 48.5757 44.76 49.8257 43.5429 50.5285C42.3257 51.2312 40.9111 51.1812 39.5595 50.744C38.2078 50.3067 36.7846 49.445 35.3741 48.2986C32.546 46.0001 29.5611 42.3872 27.039 38.0187C24.5169 33.6503 22.8804 29.2588 22.3039 25.6604C22.0164 23.8657 21.9817 22.2023 22.2789 20.813C22.576 19.4239 23.24 18.1738 24.4572 17.4711C25.6743 16.7684 27.0889 16.8184 28.4405 17.2556C29.7923 17.6929 31.2154 18.5546 32.626 19.701Z" fill="#E0E0E0"/>
<path fill-rule="evenodd" clip-rule="evenodd" d="M43.3463 21.3212C43.1338 20.3276 42.7433 19.8139 42.3286 19.5745C41.9139 19.3351 41.2738 19.2537 40.3071 19.5665C39.3405 19.8791 38.1817 20.5488 36.9058 21.5858C34.3609 23.6541 31.5551 27.016 29.1422 31.1953C26.7293 35.3746 25.2207 39.4854 24.7019 42.7235C24.4418 44.3469 24.4413 45.6853 24.6538 46.6788C24.8663 47.6724 25.2568 48.186 25.6715 48.4254C26.0862 48.6649 26.7263 48.7462 27.693 48.4335C28.6596 48.1208 29.8184 47.4511 31.0943 46.4141C33.6391 44.3458 36.4449 40.9839 38.8579 36.8046C41.2708 32.6253 42.7793 28.5145 43.2981 25.2764C43.5582 23.653 43.5588 22.3146 43.3463 21.3212ZM45.6961 25.6606C45.1196 29.259 43.4832 33.6505 40.9611 38.0189C38.4389 42.3874 35.454 46.0003 32.626 48.2987C31.2155 49.4451 29.7923 50.3068 28.4405 50.7441C27.089 51.1814 25.6744 51.2314 24.4572 50.5286C23.2401 49.8259 22.576 48.5758 22.2789 47.1867C21.9818 45.7974 22.0164 44.1341 22.304 42.3393C22.8805 38.7409 24.5169 34.3494 27.039 29.981C29.5611 25.6126 32.546 21.9997 35.3741 19.7012C36.7846 18.5548 38.2078 17.6931 39.5595 17.2558C40.9111 16.8185 42.3257 16.7686 43.5429 17.4713C44.76 18.174 45.424 19.4241 45.7212 20.8132C46.0183 22.2025 45.9837 23.8658 45.6961 25.6606Z" fill="#E0E0E0"/>
</svg>
