<svg width="68" height="68" viewBox="0 0 68 68" fill="none" xmlns="http://www.w3.org/2000/svg">
<path d="M50.6553 15.1113L47.6206 49.1074L33.9796 52.8891L20.3762 49.1127L17.3447 15.1113H50.6553Z" fill="#E0E0E0"/>
<path d="M45.0226 46.9428L47.6159 17.8916H34V49.9987L45.0226 46.9428Z" fill="#E0E0E0"/>
<path d="M24.2943 30.502L24.6681 34.672H34V30.502H24.2943Z" fill="#09090A"/>
<path d="M34 22.0615H33.9856H23.5433L23.9224 26.2317H34V22.0615Z" fill="#09090A"/>
<path d="M34 45.6711V41.3324L33.9817 41.3373L29.3374 40.0832L29.0405 36.7573H26.7838H24.8544L25.4386 43.305L33.9808 45.6764L34 45.6711Z" fill="#09090A"/>
<path d="M39.1206 34.6721L38.6366 40.0804L33.9856 41.3357V45.6742L42.5346 43.3049L42.5973 42.6003L43.5772 31.6218L43.679 30.502L44.4318 22.0615H33.9856V26.2317H39.8617L39.4823 30.502H33.9856V34.6721H39.1206Z" fill="#010202"/>
</svg>
