<svg width="68" height="68" viewBox="0 0 68 68" fill="none" xmlns="http://www.w3.org/2000/svg">
<path d="M15.1111 15.1113H52.8889V52.8891H15.1111V15.1113Z" fill="#E0E0E0"/>
<path d="M33.2503 29.1008H35.0625V32.2293H30.1632V46.148L30.0333 46.1835C29.8562 46.2307 27.5246 46.2307 27.0229 46.1775L26.6215 46.1421V32.2293H21.7222V29.1008L23.2746 29.0831C24.1246 29.0713 26.3086 29.0713 28.1267 29.0831C29.9448 29.0949 32.2468 29.1008 33.2503 29.1008ZM47.0805 44.6723C46.3604 45.4338 45.5871 45.8588 44.3003 46.2071C43.7396 46.3605 43.6451 46.3664 42.3819 46.3605C41.1187 46.3546 41.0184 46.3546 40.4045 46.1953C38.8166 45.788 37.5357 44.9911 36.6621 43.8637C36.4142 43.5449 36.0069 42.8838 36.0069 42.8012C36.0069 42.7775 36.0659 42.7244 36.1427 42.689C36.2194 42.6536 36.3788 42.5532 36.5087 42.4765C36.6385 42.3998 36.8746 42.2581 37.034 42.1755C37.1934 42.0928 37.6538 41.8213 38.0552 41.5793C38.4566 41.3373 38.8225 41.1425 38.8639 41.1425C38.9052 41.1425 38.9819 41.2251 39.0409 41.3255C39.3951 41.9216 40.2215 42.6831 40.8059 42.9428C41.166 43.0963 41.9628 43.2675 42.3465 43.2675C42.7007 43.2675 43.35 43.114 43.6982 42.9546C44.0701 42.7835 44.259 42.6123 44.4833 42.2699C44.6368 42.0279 44.6545 41.963 44.6486 41.5025C44.6486 41.0775 44.625 40.9595 44.5069 40.7647C44.1764 40.2216 43.7278 39.9383 41.9097 39.1355C40.0326 38.3032 39.1885 37.8074 38.5038 37.1404C37.9962 36.6446 37.8958 36.5088 37.5771 35.889C37.1639 35.0921 37.1107 34.8324 37.1048 33.646C37.0989 32.8137 37.1166 32.5421 37.2052 32.2588C37.3291 31.8338 37.7305 31.0133 37.9135 30.8067C38.2913 30.364 38.4271 30.2282 38.6927 30.0098C39.4955 29.3487 40.7469 28.9119 41.9451 28.8706C42.0809 28.8706 42.5295 28.8942 42.9486 28.9237C44.1528 29.0241 44.9732 29.3192 45.7642 29.9508C46.3604 30.423 47.2635 31.5328 47.175 31.6803C47.116 31.7689 44.7607 33.339 44.6073 33.3862C44.5128 33.4157 44.4479 33.3803 44.318 33.2269C43.5153 32.2647 43.1906 32.0581 42.4114 32.0109C41.8566 31.9755 41.5614 32.0404 41.1896 32.2883C40.8 32.548 40.6111 32.9435 40.6111 33.4925C40.617 34.2953 40.9239 34.673 42.0573 35.2338C42.7892 35.5939 43.4149 35.889 43.4621 35.889C43.533 35.889 45.05 36.6446 45.4455 36.8807C47.2871 37.9609 48.0368 39.0706 48.2316 40.9831C48.3733 42.4234 47.966 43.7397 47.0805 44.6723Z" fill="#010202"/>
</svg>
