<svg width="68" height="68" viewBox="0 0 68 68" fill="none" xmlns="http://www.w3.org/2000/svg">
<path d="M61.3983 19.6913C59.585 13.543 54.4567 8.41465 48.3083 6.60131C43.6333 5.24131 40.4033 5.35465 38.165 7.02631C35.4734 9.03798 35.1617 12.6646 35.1617 15.243V22.298C35.1617 29.268 38.335 32.8096 44.5683 32.8096H52.7C55.25 32.8096 58.905 32.498 60.9167 29.8063C62.645 27.5963 62.7867 24.3663 61.3983 19.6913Z" fill="#E0E0E0"/>
<path opacity="0.4" d="M53.5784 37.8533C52.8417 37.0033 51.765 36.5216 50.66 36.5216H40.5167C35.53 36.5216 31.4783 32.4699 31.4783 27.4833V17.3399C31.4783 16.2349 30.9967 15.1583 30.1467 14.4216C29.325 13.6849 28.1917 13.3449 27.115 13.4866C20.4567 14.3366 14.3367 17.9916 10.3417 23.4883C6.31835 29.0133 4.84502 35.7566 6.12002 42.4999C7.96168 52.2466 15.7534 60.0383 25.5284 61.8799C27.0867 62.1916 28.645 62.3333 30.2033 62.3333C35.3317 62.3333 40.29 60.7466 44.5117 57.6583C50.0083 53.6633 53.6633 47.5433 54.5134 40.8849C54.655 39.7799 54.315 38.6749 53.5784 37.8533Z" fill="#E0E0E0"/>
</svg>
