<svg width="68" height="68" viewBox="0 0 68 68" fill="none" xmlns="http://www.w3.org/2000/svg">
<path d="M45.3333 22.667H22.6667V45.3337H45.3333V22.667Z" fill="#E0E0E0"/>
<path opacity="0.4" d="M14.1667 62.333C18.8417 62.333 22.6667 58.508 22.6667 53.833V45.333H14.1667C9.49166 45.333 5.66666 49.158 5.66666 53.833C5.66666 58.508 9.49166 62.333 14.1667 62.333Z" fill="#E0E0E0"/>
<path opacity="0.4" d="M14.1667 22.667H22.6667V14.167C22.6667 9.49199 18.8417 5.66699 14.1667 5.66699C9.49166 5.66699 5.66666 9.49199 5.66666 14.167C5.66666 18.842 9.49166 22.667 14.1667 22.667Z" fill="#E0E0E0"/>
<path opacity="0.4" d="M45.3333 22.667H53.8333C58.5083 22.667 62.3333 18.842 62.3333 14.167C62.3333 9.49199 58.5083 5.66699 53.8333 5.66699C49.1583 5.66699 45.3333 9.49199 45.3333 14.167V22.667Z" fill="#E0E0E0"/>
<path opacity="0.4" d="M53.8333 62.333C58.5083 62.333 62.3333 58.508 62.3333 53.833C62.3333 49.158 58.5083 45.333 53.8333 45.333H45.3333V53.833C45.3333 58.508 49.1583 62.333 53.8333 62.333Z" fill="#E0E0E0"/>
</svg>
