<svg width="68" height="68" viewBox="0 0 68 68" fill="none" xmlns="http://www.w3.org/2000/svg">
<path d="M48.1667 14.0537V34.227C48.1667 39.8653 44.1717 42.047 39.27 39.1003L35.53 36.8337C34.68 36.3237 33.32 36.3237 32.47 36.8337L28.73 39.1003C23.8283 42.047 19.8333 39.8653 19.8333 34.227V14.1387C19.8617 8.50032 22.695 5.66699 28.3333 5.66699H39.6667C45.2767 5.66699 48.11 8.47199 48.1667 14.0537Z" fill="#E0E0E0"/>
<path opacity="0.4" d="M62.3333 33.717V42.302C62.3333 56.6104 56.6667 62.3337 42.5 62.3337H25.5C11.3333 62.3337 5.66667 56.6104 5.66667 42.302V33.717C5.66667 21.7037 9.66167 15.7537 19.3233 14.1387H19.8333V34.227C19.8333 39.8654 23.8283 42.047 28.73 39.1004L32.47 36.8337C33.32 36.3237 34.68 36.3237 35.53 36.8337L39.27 39.1004C44.1717 42.047 48.1667 39.8654 48.1667 34.227V14.0537C58.1967 15.527 62.3333 21.5054 62.3333 33.717Z" fill="#E0E0E0"/>
</svg>
