<svg width="450" height="450" viewBox="0 0 450 450" fill="none" xmlns="http://www.w3.org/2000/svg">
<path opacity="0.4" d="M159.375 355.687H150C75 355.687 37.5 336.937 37.5 243.187V149.437C37.5 74.4365 75 36.9365 150 36.9365H300C375 36.9365 412.5 74.4365 412.5 149.437V243.187C412.5 318.187 375 355.687 300 355.687H290.625C284.812 355.687 279.188 358.499 275.625 363.187L247.5 400.687C235.125 417.187 214.875 417.187 202.5 400.687L174.375 363.187C171.375 359.062 164.625 355.687 159.375 355.687Z" fill="#9747FF"/>
<path d="M150 252.187C146.437 252.187 142.875 250.874 140.062 248.061L102.562 210.561C97.125 205.124 97.125 196.124 102.562 190.687L140.062 153.187C145.5 147.749 154.5 147.749 159.937 153.187C165.375 158.624 165.375 167.624 159.937 173.061L132.375 200.625L159.937 228.187C165.375 233.624 165.375 242.624 159.937 248.061C157.125 250.874 153.562 252.187 150 252.187Z" fill="#9747FF"/>
<path d="M300 252.187C296.437 252.187 292.875 250.874 290.062 248.061C284.625 242.624 284.625 233.624 290.062 228.187L317.625 200.625L290.062 173.061C284.625 167.624 284.625 158.624 290.062 153.187C295.5 147.749 304.5 147.749 309.937 153.187L347.437 190.687C352.875 196.124 352.875 205.124 347.437 210.561L309.937 248.061C307.125 250.874 303.562 252.187 300 252.187Z" fill="#9747FF"/>
<path d="M206.25 258.376C204.375 258.376 202.5 258 200.625 257.25C193.5 254.25 190.125 246 193.312 238.687L230.812 151.125C233.812 144 242.062 140.625 249.375 143.812C256.5 146.812 259.875 155.062 256.687 162.375L219.187 249.938C216.937 255.188 211.687 258.376 206.25 258.376Z" fill="#9747FF"/>
</svg>
