<svg width="450" height="450" viewBox="0 0 450 450" fill="none" xmlns="http://www.w3.org/2000/svg">
<path opacity="0.4" d="M406.125 195.75L387.75 274.125C372 341.813 340.875 369.188 282.375 363.562C273 362.812 262.875 361.125 252 358.5L220.5 351C142.312 332.438 118.125 293.813 136.5 215.438L154.875 136.875C158.625 120.938 163.125 107.063 168.75 95.625C190.687 50.25 228 38.0625 290.625 52.875L321.937 60.1875C400.5 78.5625 424.5 117.375 406.125 195.75Z" fill="#9747FF"/>
<path d="M282.375 363.562C270.75 371.437 256.125 378 238.313 383.812L208.688 393.562C134.25 417.562 95.0625 397.5 70.875 323.062L46.875 249C22.8751 174.563 42.75 135.187 117.188 111.187L146.813 101.437C154.5 99 161.813 96.9375 168.75 95.625C163.125 107.062 158.625 120.938 154.875 136.875L136.5 215.438C118.125 293.812 142.313 332.437 220.5 351L252 358.5C262.875 361.125 273 362.812 282.375 363.562Z" fill="#9747FF"/>
<path d="M327.938 197.063C326.813 197.063 325.688 196.875 324.375 196.688L233.438 173.625C225.938 171.75 221.438 164.063 223.313 156.563C225.188 149.063 232.875 144.563 240.375 146.438L331.313 169.5C338.813 171.375 343.313 179.063 341.438 186.563C339.938 192.75 334.125 197.063 327.938 197.063Z" fill="#9747FF"/>
<path d="M273 260.438C271.875 260.438 270.75 260.25 269.438 260.063L214.875 246.188C207.375 244.313 202.875 236.625 204.75 229.125C206.625 221.625 214.313 217.125 221.813 219L276.375 232.875C283.875 234.75 288.375 242.438 286.5 249.938C285 256.313 279.375 260.438 273 260.438Z" fill="#9747FF"/>
</svg>
