<svg width="48" height="48" viewBox="0 0 48 48" fill="none" xmlns="http://www.w3.org/2000/svg">
<path d="M16.1801 23.2599H6.80005C6.96005 13.9199 8.80004 12.3799 14.54 8.97991C15.2 8.57991 15.42 7.73993 15.02 7.05993C14.62 6.39993 13.78 6.17995 13.1 6.57995C6.33998 10.5799 3.97998 13.0199 3.97998 24.6599V35.4399C3.97998 38.8599 6.76003 41.6199 10.16 41.6199H16.16C19.68 41.6199 22.34 38.9599 22.34 35.4399V29.4399C22.36 25.9199 19.7001 23.2599 16.1801 23.2599Z" fill="#E0E0E0"/>
<path opacity="0.4" d="M37.8199 23.2599H28.4399C28.5999 13.9199 30.4401 12.3799 36.1801 8.97991C36.8401 8.57991 37.06 7.73993 36.66 7.05993C36.26 6.39993 35.42 6.17995 34.74 6.57995C27.98 10.5799 25.62 13.0199 25.62 24.6599V35.4399C25.62 38.8599 28.4 41.6199 31.8 41.6199H37.8C41.32 41.6199 43.98 38.9599 43.98 35.4399V29.4399C44 25.9199 41.3399 23.2599 37.8199 23.2599Z" fill="#E0E0E0"/>
</svg>
