<svg width="24" height="24" viewBox="0 0 24 24" fill="none" xmlns="http://www.w3.org/2000/svg">
<path opacity="0.4" d="M16.19 2H7.82C4.17 2 2 4.17 2 7.81V16.18C2 19.82 4.17 21.99 7.81 21.99H16.18C19.82 21.99 21.99 19.82 21.99 16.18V7.81C22 4.17 19.83 2 16.19 2Z" fill="#E0E0E0"/>
<path d="M17.35 9.04979L15.01 16.5898C14.45 18.3798 11.94 18.4098 11.35 16.6298L10.65 14.5598C10.46 13.9898 10.01 13.5298 9.44 13.3498L7.36 12.6498C5.59 12.0598 5.62 9.52979 7.41 8.98979L14.95 6.63979C16.43 6.18979 17.82 7.57979 17.35 9.04979Z" fill="#E0E0E0"/>
</svg>
