<svg width="24" height="24" viewBox="0 0 24 24" fill="none" xmlns="http://www.w3.org/2000/svg">
<path opacity="0.4" d="M16.19 2H7.81C4.17 2 2 4.17 2 7.81V16.18C2 19.83 4.17 22 7.81 22H16.18C19.82 22 21.99 19.83 21.99 16.19V7.81C22 4.17 19.83 2 16.19 2Z" fill="white"/>
<path d="M6.89 15.7495C6.61 15.7495 6.35 15.5995 6.22 15.3395C6.03 14.9695 6.18 14.5195 6.56 14.3295C7.43 13.8995 8.17 13.2395 8.7 12.4395C8.88 12.1695 8.88 11.8295 8.7 11.5595C8.16 10.7595 7.42 10.0995 6.56 9.66954C6.18 9.48954 6.03 9.03954 6.22 8.65954C6.4 8.28954 6.85 8.13954 7.22 8.32954C8.32 8.87954 9.26 9.70954 9.94 10.7295C10.45 11.4995 10.45 12.4995 9.94 13.2695C9.26 14.2895 8.32 15.1195 7.22 15.6695C7.12 15.7195 7 15.7495 6.89 15.7495Z" fill="white"/>
<path d="M17 15.75H13C12.59 15.75 12.25 15.41 12.25 15C12.25 14.59 12.59 14.25 13 14.25H17C17.41 14.25 17.75 14.59 17.75 15C17.75 15.41 17.41 15.75 17 15.75Z" fill="white"/>
</svg>
